<?xml version="1.0" standalone="no"?>
<!DOCTYPE svg PUBLIC "-//W3C//DTD SVG 20010904//EN"
 "http://www.w3.org/TR/2001/REC-SVG-20010904/DTD/svg10.dtd">
<svg version="1.0" xmlns="http://www.w3.org/2000/svg"
 width="48.000000pt" height="48.000000pt" viewBox="0 0 48.000000 48.000000"
 preserveAspectRatio="xMidYMid meet">

<g transform="translate(0.000000,48.000000) scale(0.100000,-0.100000)"
fill="#000000" stroke="none">
<path d="M209 354 c-17 -21 0 -49 31 -49 31 0 48 28 31 49 -17 20 -45 20 -62
0z"/>
<path d="M90 326 c-16 -21 -9 -60 13 -64 41 -8 64 48 28 68 -25 13 -26 13 -41
-4z"/>
<path d="M348 329 c-35 -20 -11 -75 29 -67 22 4 29 43 13 64 -14 16 -19 17
-42 3z"/>
<path d="M210 245 c-23 -28 9 -72 45 -59 36 14 24 74 -15 74 -10 0 -23 -7 -30
-15z"/>
<path d="M69 235 c-59 -33 -39 -75 35 -75 59 0 86 10 86 30 0 42 -76 71 -121
45z"/>
<path d="M340 243 c-49 -18 -66 -66 -27 -77 38 -10 102 -7 121 7 42 31 -37 91
-94 70z"/>
<path d="M181 149 c-41 -39 -25 -54 59 -54 62 0 75 3 78 17 10 49 -93 78 -137
37z"/>
</g>
</svg>
